<svg width="40px" height="40px" viewBox="0 0 40 40">
    <circle cx="20" cy="20" r="20" fill="var(--ion-background-color-step-200)"></circle>
    <path
        d="M14.2083333,7.75 C16.3525,7.75 18.0704167,6.01916667 18.0704167,3.875 C18.0704167,1.73083333 16.3525,0 14.2083333,0 C13.795,0 13.3945833,0.0645833333 13.0329167,0.180833333 C13.7691667,1.22708333 14.1954167,2.49291667 14.1954167,3.875 C14.1954167,5.25708333 13.75625,6.51 13.0329167,7.56916667 C13.3945833,7.68541667 13.795,7.75 14.2083333,7.75 Z M7.75,7.75 C9.89416667,7.75 11.6120833,6.01916667 11.6120833,3.875 C11.6120833,1.73083333 9.89416667,0 7.75,0 C5.60583333,0 3.875,1.73083333 3.875,3.875 C3.875,6.01916667 5.60583333,7.75 7.75,7.75 Z M16.3008333,10.54 C17.3729167,11.4829167 18.0833333,12.6841667 18.0833333,14.2083333 L18.0833333,16.7916667 L21.9583333,16.7916667 L21.9583333,14.2083333 C21.9583333,12.2191667 18.8970833,10.9920833 16.3008333,10.54 Z M7.75,10.3333333 C5.16666667,10.3333333 0,11.625 0,14.2083333 L0,16.7916667 L15.5,16.7916667 L15.5,14.2083333 C15.5,11.625 10.3333333,10.3333333 7.75,10.3333333 Z"
        fill="currentColor"
        transform="translate(9.041667, 10.458333)">
    </path>
</svg>